<?xml version="1.0" encoding="iso-8859-1"?>
<!-- Generator: Adobe Illustrator 17.1.0, SVG Export Plug-In . SVG Version: 6.00 Build 0)  -->
<!DOCTYPE svg PUBLIC "-//W3C//DTD SVG 1.1//EN" "http://www.w3.org/Graphics/SVG/1.1/DTD/svg11.dtd">
<svg xmlns="http://www.w3.org/2000/svg" xmlns:xlink="http://www.w3.org/1999/xlink" version="1.1" id="Capa_1" x="0px" y="0px" viewBox="0 0 465 465" style="enable-background:new 0 0 465 465;" xml:space="preserve" width="512px" height="512px">
<g>
	<path d="M232.5,147.663c40.711,0,73.832-33.121,73.832-73.832S273.211,0,232.5,0s-73.832,33.12-73.832,73.831   S191.789,147.663,232.5,147.663z M232.5,15c32.44,0,58.832,26.392,58.832,58.831c0,32.44-26.392,58.832-58.832,58.832   s-58.832-26.392-58.832-58.832C173.668,41.392,200.06,15,232.5,15z" fill="#57b0f7"/>
	<path d="M323.332,217.985c4.142,0,7.5-3.357,7.5-7.5v-40.319c0-4.143-3.358-7.5-7.5-7.5H141.668c-4.142,0-7.5,3.357-7.5,7.5v40.319   c0,4.143,3.358,7.5,7.5,7.5c9.374,0,17,7.625,17,16.998v20c0,4.143,3.358,7.5,7.5,7.5s7.5-3.357,7.5-7.5v-20   c0-15.062-10.462-27.727-24.5-31.11v-26.207h166.663v26.207c-14.038,3.384-24.5,16.049-24.5,31.11v157.699   c0,15.063,10.462,27.728,24.5,31.112V450H149.168v-26.205c14.038-3.385,24.5-16.05,24.5-31.112V284.983c0-4.143-3.358-7.5-7.5-7.5   s-7.5,3.357-7.5,7.5v107.699c0,9.374-7.626,17-17,17c-4.142,0-7.5,3.357-7.5,7.5V457.5c0,4.143,3.358,7.5,7.5,7.5h181.663   c4.142,0,7.5-3.357,7.5-7.5v-40.317c0-4.143-3.358-7.5-7.5-7.5c-9.374,0-17-7.626-17-17V234.983   C306.332,225.61,313.958,217.985,323.332,217.985z" fill="#57b0f7"/>
</g>
<g>
</g>
<g>
</g>
<g>
</g>
<g>
</g>
<g>
</g>
<g>
</g>
<g>
</g>
<g>
</g>
<g>
</g>
<g>
</g>
<g>
</g>
<g>
</g>
<g>
</g>
<g>
</g>
<g>
</g>
</svg>
