<?xml version="1.0" encoding="iso-8859-1"?>
<!-- Generator: Adobe Illustrator 16.0.0, SVG Export Plug-In . SVG Version: 6.00 Build 0)  -->
<!DOCTYPE svg PUBLIC "-//W3C//DTD SVG 1.1//EN" "http://www.w3.org/Graphics/SVG/1.1/DTD/svg11.dtd">
<svg xmlns="http://www.w3.org/2000/svg" xmlns:xlink="http://www.w3.org/1999/xlink" version="1.1" id="Capa_1" x="0px" y="0px" width="512px" height="512px" viewBox="0 0 574.756 574.756" style="enable-background:new 0 0 574.756 574.756;" xml:space="preserve">
<g>
	<g>
		<path stroke="#2790db" stroke-width="6" d="M53.558,574.256c3.412,0,6.844-0.332,10.204-0.988l80.89-15.783c12.728-2.482,24.303-8.643,33.473-17.812l379.119-379.12    c22.669-22.669,22.669-59.553,0.001-82.222l-60.802-60.802C485.462,6.548,470.861,0.5,455.331,0.5s-30.13,6.048-41.111,17.029    L35.101,396.646c-9.17,9.172-15.33,20.746-17.813,33.475L1.503,511.012c-3.048,15.623,1.004,31.623,11.117,43.898    C22.747,567.205,37.668,574.256,53.558,574.256z M455.331,43.339c3.915,0,7.831,1.494,10.818,4.481l60.802,60.801    c5.976,5.975,5.976,15.662,0,21.637l-42.734,42.734l-82.438-82.439l42.733-42.733C447.5,44.833,451.415,43.339,455.331,43.339z     M78.382,413.951l293.103-293.104l82.439,82.438L160.821,496.389L78.382,413.951z M122.086,518.24l-66.531,12.98    c-0.675,0.133-1.344,0.195-1.998,0.195c-6.249,0-11.266-5.748-10.007-12.199l12.982-66.531L122.086,518.24z" fill="#2790db"/>
		<path stroke="#2790db" stroke-width="6" d="M53.558,574.756c-16.04,0-31.102-7.117-41.323-19.528C2.026,542.837-2.064,526.687,1.013,510.916l15.784-80.891    c2.502-12.825,8.709-24.489,17.95-33.732L413.866,17.175C424.942,6.1,439.668,0,455.331,0c15.664,0,30.39,6.1,41.465,17.175    l60.802,60.802c22.863,22.863,22.862,60.065-0.001,82.929l-379.119,379.12c-9.242,9.241-20.906,15.448-33.731,17.95l-80.89,15.782    C60.469,574.42,57.003,574.756,53.558,574.756z M455.331,1c-15.396,0-29.87,5.996-40.758,16.882L35.454,397    c-9.1,9.102-15.212,20.588-17.676,33.217L1.994,511.107c-3.019,15.476,0.995,31.325,11.012,43.484    c10.031,12.18,24.812,19.164,40.552,19.164c3.382,0,6.783-0.329,10.108-0.979l80.89-15.784    c12.629-2.463,24.115-8.574,33.215-17.675l379.119-379.12c22.474-22.474,22.474-59.041,0.001-81.515l-60.802-60.802    C485.202,6.996,470.728,1,455.331,1z M53.558,531.916c-3.192,0-6.202-1.431-8.257-3.926c-2.04-2.477-2.857-5.71-2.24-8.869    l13.162-67.453l66.882,66.883l-67.453,13.161C54.961,531.847,54.257,531.916,53.558,531.916z M56.844,453.703l-12.802,65.609    c-0.559,2.865,0.181,5.797,2.031,8.042c1.864,2.264,4.593,3.562,7.485,3.562c0.635,0,1.274-0.062,1.901-0.186l65.609-12.801    L56.844,453.703z M160.821,497.096l-83.146-83.145l293.81-293.811l83.146,83.146L160.821,497.096z M79.089,413.951l81.732,81.73    l292.396-292.396l-81.732-81.731L79.089,413.951z M484.217,173.7l-83.146-83.146l43.087-43.087    c2.985-2.984,6.953-4.628,11.173-4.628s8.188,1.644,11.172,4.628l60.802,60.801c2.984,2.984,4.628,6.952,4.628,11.172    c0,4.22-1.644,8.188-4.628,11.172L484.217,173.7z M402.485,90.554l81.731,81.732l42.381-42.381    c2.796-2.795,4.335-6.512,4.335-10.465c0-3.953-1.539-7.67-4.335-10.465l-60.802-60.801c-2.796-2.795-6.512-4.335-10.465-4.335    c-3.952,0-7.669,1.54-10.466,4.335L402.485,90.554z" fill="#2790db"/>
	</g>
</g>
<g>
</g>
<g>
</g>
<g>
</g>
<g>
</g>
<g>
</g>
<g>
</g>
<g>
</g>
<g>
</g>
<g>
</g>
<g>
</g>
<g>
</g>
<g>
</g>
<g>
</g>
<g>
</g>
<g>
</g>
</svg>
